<?xml version="1.0"?>
<svg xmlns="http://www.w3.org/2000/svg" width="300" height="96" viewBox="0 0 300 96">
  <style type="text/css"><![CDATA[:root {
  font-family: "Noto Sans", Helvetica, Arial, system-ui, sans-serif;
  font-size: 12px;
  font-weight: 400;
  --text-color: #1F2328;
  --text-color-muted: #59636E;
}

@media (prefers-color-scheme: dark) {
  :root {
    --text-color: #D1D7E0;
    --text-color-muted: #9198A1;
  }
}

text, tspan {
  fill: var(--text-color);
}
tspan.muted {
  fill: var(--text-color-muted);
}

.text-bold {
  font-weight: 600;
}
]]></style>
  <defs>
    <mask mask-type="luminance" id="mask">
      <rect x="0" y="0" width="300" height="8" rx="5" ry="5" fill="white"/>
    </mask>
  </defs>
  <g mask="url(#mask)">
    <rect x="0.0" y="0" width="78.38286621452835" height="8" fill="#555555"/>
    <rect x="78.38286621452835" y="0" width="75.61809098019073" height="8" fill="#E3F171"/>
    <rect x="154.0009571947191" y="0" width="30.01680927311567" height="8" fill="#3178c6"/>
    <rect x="184.01776646783475" y="0" width="29.984416403049014" height="8" fill="#663399"/>
    <rect x="214.00218287088376" y="0" width="26.570032801428788" height="8" fill="#e34c26"/>
    <rect x="240.57221567231255" y="0" width="25.872272870533575" height="8" fill="#178600"/>
    <rect x="266.4444885428461" y="0" width="33.55551145715386" height="8" fill="#EDEDED"/>
  </g>
  <circle cx="5.0" cy="21" r="5" fill="#555555"/>
  <text x="20.0" y="21" dominant-baseline="middle">
    <tspan class="text-bold">C</tspan>
    <tspan class="muted"> 26.1%</tspan>
  </text>
  <circle cx="155.0" cy="21" r="5" fill="#E3F171"/>
  <text x="170.0" y="21" dominant-baseline="middle">
    <tspan class="text-bold">Pascal</tspan>
    <tspan class="muted"> 25.2%</tspan>
  </text>
  <circle cx="5.0" cy="41" r="5" fill="#3178c6"/>
  <text x="20.0" y="41" dominant-baseline="middle">
    <tspan class="text-bold">TypeScript</tspan>
    <tspan class="muted"> 10.0%</tspan>
  </text>
  <circle cx="155.0" cy="41" r="5" fill="#663399"/>
  <text x="170.0" y="41" dominant-baseline="middle">
    <tspan class="text-bold">CSS</tspan>
    <tspan class="muted"> 10.0%</tspan>
  </text>
  <circle cx="5.0" cy="61" r="5" fill="#e34c26"/>
  <text x="20.0" y="61" dominant-baseline="middle">
    <tspan class="text-bold">HTML</tspan>
    <tspan class="muted"> 8.9%</tspan>
  </text>
  <circle cx="155.0" cy="61" r="5" fill="#178600"/>
  <text x="170.0" y="61" dominant-baseline="middle">
    <tspan class="text-bold">C#</tspan>
    <tspan class="muted"> 8.6%</tspan>
  </text>
  <circle cx="5.0" cy="81" r="5" fill="#EDEDED"/>
  <text x="20.0" y="81" dominant-baseline="middle">
    <tspan class="text-bold">Other</tspan>
    <tspan class="muted"> 11.2%</tspan>
  </text>
</svg>
